<svg xmlns="http://www.w3.org/2000/svg" width="684" height="108" fill="currentColor"><path d="M108 0H48v12h60zM180 0h-24v12h24zM252 0h-24v12h24zM360 0h-84v12h84zM420 0h-24v12h24zM576 0H456v12h120zM684 0h-60v12h60zM48 12H36v12h12zM120 12h-12v12h12zM588 12h-12v12h12zM48 24H24v12h24zM168 24h-24v12h24zM240 24h-24v12h24zM288 24h-24v12h24zM408 24h-24v12h24zM528 24h-24v12h24zM600 24h-24v12h24zM660 24h-24v12h24zM72 48H24v12h48zM228 48h-96v12h96zM324 48h-72v12h72zM396 48h-24v12h24zM564 48h-96v12h96zM648 48h-24v12h24zM84 60H72v12h12zM576 60h-12v12h12zM96 72H72v12h24zM144 72h-24v12h24zM216 72h-24v12h24zM264 72h-24v12h24zM384 72h-24v12h24zM504 72h-24v12h24zM588 72h-24v12h24zM636 72h-24v12h24zM12 84H0v12h12zM84 96H12v12h72zM132 96h-24v12h24zM204 96h-24v12h24zM324 96h-96v12h96zM444 96h-96v12h96zM564 96h-96v12h96zM648 96h-60v12h60z"/></svg>
